<svg width="48" height="47" viewBox="0 0 48 47" fill="none" xmlns="http://www.w3.org/2000/svg">
<path d="M44 23.5023C44 20.9306 43.4826 18.384 42.4775 16.0081C41.4725 13.6321 39.9993 11.4733 38.1421 9.65477C36.2849 7.83629 34.0801 6.39379 31.6536 5.40964C29.2271 4.42548 26.6264 3.91895 24 3.91895C21.3735 3.91895 18.7728 4.42548 16.3463 5.40964C13.9198 6.39379 11.715 7.83629 9.85782 9.65477C6.10709 13.3274 3.99995 18.3085 3.99995 23.5023C3.99995 28.6961 6.10709 33.6772 9.85782 37.3498C11.715 39.1683 13.9198 40.6108 16.3463 41.5949C18.7728 42.5791 21.3735 43.0856 24 43.0856C29.3043 43.0856 34.3914 41.0224 38.1421 37.3498C41.8928 33.6772 44 28.6961 44 23.5023V23.5023ZM40 23.5023C40 27.6573 38.3142 31.6422 35.3137 34.5803C32.3131 37.5184 28.2434 39.1689 24 39.1689C19.7565 39.1689 15.6868 37.5184 12.6862 34.5803C9.68566 31.6422 7.99995 27.6573 7.99995 23.5023C7.99995 19.3472 9.68566 15.3623 12.6862 12.4243C15.6868 9.4862 19.7565 7.83561 24 7.83561C28.2434 7.83561 32.3131 9.4862 35.3137 12.4243C38.3142 15.3623 40 19.3472 40 23.5023ZM28 13.7106L18 23.5023L28 33.2939V13.7106Z" fill="currentColor"/>
</svg>
