<svg width="43" height="43" viewBox="0 0 43 43" fill="none" xmlns="http://www.w3.org/2000/svg">
<path d="M6.71875 0C7.07513 0 7.41692 0.141573 7.66892 0.393575C7.92093 0.645577 8.0625 0.987365 8.0625 1.34375V5.375H34.9375V1.34375C34.9375 0.987365 35.0791 0.645577 35.3311 0.393575C35.5831 0.141573 35.9249 0 36.2812 0C36.6376 0 36.9794 0.141573 37.2314 0.393575C37.4834 0.645577 37.625 0.987365 37.625 1.34375V41.6562C37.625 42.0126 37.4834 42.3544 37.2314 42.6064C36.9794 42.8584 36.6376 43 36.2812 43C35.9249 43 35.5831 42.8584 35.3311 42.6064C35.0791 42.3544 34.9375 42.0126 34.9375 41.6562V40.3125H8.0625V41.6562C8.0625 42.0126 7.92093 42.3544 7.66892 42.6064C7.41692 42.8584 7.07513 43 6.71875 43C6.36237 43 6.02058 42.8584 5.76858 42.6064C5.51657 42.3544 5.375 42.0126 5.375 41.6562V1.34375C5.375 0.987365 5.51657 0.645577 5.76858 0.393575C6.02058 0.141573 6.36237 0 6.71875 0V0ZM8.0625 37.625H34.9375V29.5625H8.0625V37.625ZM8.0625 26.875H34.9375V18.8125H8.0625V26.875ZM8.0625 16.125H34.9375V8.0625H8.0625V16.125Z" fill="currentColor"/>
</svg>
