<svg width="60" height="60" viewBox="0 0 60 60" fill="none" xmlns="http://www.w3.org/2000/svg">
<path d="M48.7499 2.49707L46.0249 8.52207L39.9999 11.2471L46.0249 13.9721L48.7499 19.9971L51.4999 13.9721L57.4999 11.2471L51.4999 8.52207L48.7499 2.49707ZM29.9999 4.99707C16.2499 4.99707 4.99988 16.2471 4.99988 29.9971V54.9971H54.9999V29.9971C54.9999 26.3221 54.1749 22.8221 52.7499 19.6721L49.6499 26.4221C49.8749 27.5971 49.9999 28.7471 49.9999 29.9971C49.9999 41.0721 41.0749 49.9971 29.9999 49.9971C18.9249 49.9971 9.99988 41.0721 9.99988 29.9971C9.99988 29.8721 9.99988 29.7721 9.99988 29.6471C16.5249 27.2221 21.7249 22.1971 24.3499 15.7721C29.0249 21.5221 36.0999 24.9971 43.7499 24.9971C44.8499 24.9971 45.9749 24.9221 47.0749 24.7721L44.8999 19.9971C44.5249 19.9971 44.1249 19.9971 43.7499 19.9971C36.6999 19.9971 30.2499 16.2471 26.6499 10.2971C27.7499 10.1221 28.8499 9.99707 29.9999 9.99707C31.2499 9.99707 32.3999 10.1221 33.5499 10.3221L40.3249 7.27207C37.1749 5.82207 33.6749 4.99707 29.9999 4.99707ZM20.2249 12.4971C18.6499 17.2721 15.3749 21.2471 11.0249 23.7471C12.5999 18.9221 15.9249 14.9971 20.2249 12.4971ZM22.4999 29.3721C20.7749 29.3721 19.3749 30.7721 19.3749 32.4971C19.3749 34.2221 20.7749 35.6221 22.4999 35.6221C24.2249 35.6221 25.6249 34.2221 25.6249 32.4971C25.6249 30.7721 24.2249 29.3721 22.4999 29.3721ZM37.4999 29.3721C35.7749 29.3721 34.3749 30.7721 34.3749 32.4971C34.3749 34.2221 35.7749 35.6221 37.4999 35.6221C39.2249 35.6221 40.6249 34.2221 40.6249 32.4971C40.6249 30.7721 39.2249 29.3721 37.4999 29.3721ZM9.99988 44.9221C11.4499 46.8471 13.1499 48.5471 15.0749 49.9971H9.99988V44.9221ZM49.9999 44.9221V49.9971H44.9249C46.8499 48.5471 48.5499 46.8471 49.9999 44.9221Z" fill="currentColor"/>
</svg>
