<svg width="48" height="48" viewBox="0 0 48 48" fill="none" xmlns="http://www.w3.org/2000/svg">
<path d="M24.2719 4.49986C13.305 4.35173 4.35186 13.3049 4.49998 24.2717C4.64623 34.7895 13.2103 43.3536 23.7281 43.4999C34.6969 43.6499 43.6481 34.6967 43.4981 23.7299C43.3537 13.2102 34.7897 4.64611 24.2719 4.49986ZM36.1237 35.1795C36.0864 35.2199 36.0406 35.2516 35.9897 35.2723C35.9387 35.293 35.8838 35.3023 35.8289 35.2994C35.774 35.2966 35.7203 35.2817 35.6718 35.2558C35.6233 35.2299 35.581 35.1936 35.5481 35.1495C34.7096 34.0524 33.6826 33.1131 32.5153 32.3755C30.1284 30.8436 27.104 29.9999 24 29.9999C20.8959 29.9999 17.8715 30.8436 15.4847 32.3755C14.3174 33.1128 13.2904 34.0518 12.4519 35.1486C12.4189 35.1927 12.3767 35.2289 12.3282 35.2548C12.2796 35.2807 12.226 35.2956 12.1711 35.2985C12.1161 35.3014 12.0613 35.2921 12.0103 35.2714C11.9593 35.2507 11.9136 35.219 11.8762 35.1786C9.1253 32.209 7.56701 28.3286 7.49998 24.2811C7.34717 15.1583 14.8331 7.52236 23.9597 7.49986C33.0862 7.47736 40.5 14.8883 40.5 23.9999C40.5031 28.1449 38.94 32.1381 36.1237 35.1795Z" fill="currentColor"/>
<path d="M24 13.5C22.1513 13.5 20.4797 14.1928 19.2919 15.4519C18.1041 16.7109 17.5107 18.4519 17.6447 20.3203C17.9166 24 20.7675 27 24 27C27.2325 27 30.0779 24 30.3554 20.3212C30.4941 18.4706 29.9054 16.7456 28.6979 15.4631C27.5054 14.1975 25.8366 13.5 24 13.5Z" fill="currentColor"/>
</svg>
