<svg width="49" height="49" viewBox="0 0 49 49" fill="none" xmlns="http://www.w3.org/2000/svg">
<path d="M44.4064 40.9614L32.5315 29.0847C34.4452 26.4549 35.4747 23.2855 35.4715 20.0331C35.4715 11.5203 28.5455 4.59424 20.0327 4.59424C11.5199 4.59424 4.59387 11.5203 4.59387 20.0331C4.59387 28.5459 11.5199 35.4719 20.0327 35.4719C23.2851 35.475 26.4545 34.4456 29.0843 32.5319L40.9611 44.4067L44.4064 40.9614ZM20.0327 30.5958C17.9433 30.596 15.9008 29.9766 14.1635 28.8159C12.4261 27.6552 11.072 26.0054 10.2723 24.0751C9.47267 22.1448 9.26339 20.0207 9.67096 17.9715C10.0785 15.9222 11.0847 14.0399 12.5621 12.5624C14.0395 11.085 15.9219 10.0789 17.9711 9.67133C20.0203 9.26376 22.1444 9.47303 24.0747 10.2727C26.005 11.0724 27.6549 12.4265 28.8155 14.1638C29.9762 15.9012 30.5956 17.9437 30.5955 20.0331C30.5922 22.8335 29.4782 25.5182 27.4981 27.4984C25.5179 29.4786 22.8331 30.5925 20.0327 30.5958Z" fill="currentColor"/>
</svg>
